<svg id="Flat" height="512" viewBox="0 0 64 64" width="512" xmlns="http://www.w3.org/2000/svg"><g id="Stroke_copy_2" data-name="Stroke copy 2"><path d="m42 29h-20l-2-16h24z" fill="#57b7eb"/><path d="m21 20.63a5.82 5.82 0 0 0 2 .37 5.94 5.94 0 0 0 4.13-1.66 8 8 0 0 0 9.74 0 5.94 5.94 0 0 0 4.13 1.66 5.82 5.82 0 0 0 2-.37l1-7.63h-24z" fill="#4891d3"/><path d="m41 7a5.91 5.91 0 0 0 -1.9.31 8 8 0 0 0 -14.2 0 5.91 5.91 0 0 0 -1.9-.31 6 6 0 0 0 0 12 5.94 5.94 0 0 0 4.13-1.66 8 8 0 0 0 9.74 0 5.94 5.94 0 0 0 4.13 1.66 6 6 0 0 0 0-12z" fill="#aae1f9"/><path d="m42 17a5.94 5.94 0 0 1 -4.13-1.66 8 8 0 0 1 -9.74 0 5.94 5.94 0 0 1 -4.13 1.66 6 6 0 0 1 -6-6 5.84 5.84 0 0 1 .23-1.63 6 6 0 0 0 8.9 8 8 8 0 0 0 9.74 0 6 6 0 0 0 9.9-2.71 6 6 0 0 1 -4.77 2.34z" fill="#57b7eb"/><path d="m35 31h-.14a1 1 0 0 1 -.86-1.14l1-7a1 1 0 0 1 1.14-.86 1 1 0 0 1 .86 1.14l-1 7a1 1 0 0 1 -1 .86z" fill="#4891d3"/><path d="m29 31a1 1 0 0 1 -1-.86l-1-7a1 1 0 0 1 2-.28l1 7a1 1 0 0 1 -.86 1.14z" fill="#4891d3"/><path d="m22 29h20v4h-20z" fill="#57b7eb"/><path d="m22 29h20a0 0 0 0 1 0 0v2a0 0 0 0 1 0 0h-18a2 2 0 0 1 -2-2 0 0 0 0 1 0 0z" fill="#aae1f9"/><path d="m39.09 60.16a2.84 2.84 0 0 1 -4.13-.1l-11.42-12.62 2.82-2.83 12.64 11.39a2.84 2.84 0 0 1 .09 4.16z" fill="#57b7eb"/><path d="m33.37 58.3 3.66-4.04-3.46-3.13-3.68 3.33z" fill="#4891d3"/><path d="m39.09 57.16a2.84 2.84 0 0 1 -4.13-.1l-7.29-8.06a4.57 4.57 0 0 0 .69-.56 4.72 4.72 0 0 0 .87-1.24l-2.87-2.59-2.82 2.83 11.46 12.62a2.85 2.85 0 0 0 4.53-3.41 2.43 2.43 0 0 1 -.44.51z" fill="#4891d3"/><rect fill="#57b7eb" height="14" rx="5" transform="matrix(.707 -.707 .707 .707 -23.77 27.59)" width="10" x="16.41" y="35.49"/><path d="m27.36 44.44a5 5 0 0 1 -7.07 0l-2.83-2.83a5 5 0 0 1 -1.46-3.51 5 5 0 0 0 .46 6.51l2.83 2.83a5 5 0 0 0 8.54-3.57 6.17 6.17 0 0 1 -.47.57z" fill="#4891d3"/><path d="m24.84 60.16a2.84 2.84 0 0 1 .1-4.13l12.62-11.42 2.83 2.83-11.39 12.62a2.84 2.84 0 0 1 -4.16.1z" fill="#aae1f9"/><path d="m37.57 44.61-2.87 2.59a4.93 4.93 0 0 0 .86 1.24 4.57 4.57 0 0 0 .69.56l-7.25 8.06a2.84 2.84 0 0 1 -4.13.1 2.43 2.43 0 0 1 -.4-.51 2.85 2.85 0 0 0 4.53 3.41l11.39-12.62z" fill="#57b7eb"/><path d="m35.39 40.61h10a0 0 0 0 1 0 0v3a5 5 0 0 1 -5 5 5 5 0 0 1 -5-5v-3a0 0 0 0 1 0 0z" fill="#aae1f9" transform="matrix(.707 .707 -.707 .707 43.37 -15.5)"/><path d="m44.64 44.44a5 5 0 0 1 -7.07 0 5.15 5.15 0 0 1 -1.21-2 5 5 0 0 0 1.21 5 5 5 0 0 0 7.07 0l2.12-2.13-1.5-1.5z" fill="#57b7eb"/><path d="m40.39 40a1 1 0 0 1 -.7-.29 1 1 0 0 1 0-1.42l4.24-4.29a1 1 0 0 1 1.41 0 1 1 0 0 1 0 1.42l-4.24 4.24a1 1 0 0 1 -.71.34z" fill="#aae1f9"/><path d="m43.22 42.78a1 1 0 0 1 -.71-.29 1 1 0 0 1 0-1.42l4.25-4.24a1 1 0 1 1 1.41 1.41l-4.24 4.25a1 1 0 0 1 -.71.29z" fill="#aae1f9"/><path d="m46.05 45.61a1 1 0 0 1 -.71-1.71l4.24-4.24a1 1 0 0 1 1.42 0 1 1 0 0 1 0 1.41l-4.24 4.24a1 1 0 0 1 -.71.3z" fill="#57b7eb"/></g></svg>