<?xml version="1.0" encoding="iso-8859-1"?>
<!-- Generator: Adobe Illustrator 19.0.0, SVG Export Plug-In . SVG Version: 6.00 Build 0)  -->
<svg version="1.1" id="Layer_1" xmlns="http://www.w3.org/2000/svg" xmlns:xlink="http://www.w3.org/1999/xlink" x="0px" y="0px"
	 viewBox="0 0 512 512" style="enable-background:new 0 0 512 512;" xml:space="preserve">
<g>
	<path style="fill:#636D77;" d="M134.302,476.109v22.461c0,7.419,6.013,13.43,13.43,13.43h17.904c7.417,0,13.43-6.011,13.43-13.43
		v-22.461H134.302z"/>
	<path style="fill:#636D77;" d="M332.931,476.109v22.461c0,7.419,6.013,13.43,13.43,13.43h17.904c7.417,0,13.43-6.011,13.43-13.43
		v-22.461H332.931z"/>
</g>
<g>
	<path style="opacity:0.15;fill:#020202;enable-background:new    ;" d="M152.208,498.57v-22.461h-17.906v22.461
		c0,7.419,6.013,13.43,13.43,13.43h17.904c0.001,0,0.001,0,0.002,0C158.221,512,152.208,505.989,152.208,498.57z"/>
	<path style="opacity:0.15;fill:#020202;enable-background:new    ;" d="M350.838,498.57v-22.461h-17.906v22.461
		c0,7.419,6.013,13.43,13.43,13.43h17.904c0.001,0,0.001,0,0.002,0C356.851,512,350.838,505.989,350.838,498.57z"/>
</g>
<path style="fill:#7DE3EA;" d="M198.518,478.352h-55.842c-18.17,0-32.898-14.73-32.898-32.898V32.898
	C109.777,14.727,124.505,0,142.675,0h226.648c18.17,0,32.898,14.727,32.898,32.898v110.213v302.342
	c0,18.167-14.728,32.898-32.898,32.898H198.518"/>
<path style="fill:#49D0E2;" d="M402.222,32.898C402.222,14.727,387.494,0,369.324,0H142.675c-18.17,0-32.898,14.727-32.898,32.898
	v162.374h292.446V59.741"/>
<g style="opacity:0.55;">
	<path style="fill:#F5F5F5;" d="M367.358,163.692c-4.635,0-8.394-3.757-8.394-8.394V39.225c0-4.637,3.758-8.394,8.394-8.394
		c4.637,0,8.394,3.757,8.394,8.394v116.074C375.752,159.934,371.994,163.692,367.358,163.692z"/>
</g>
<g style="opacity:0.55;">
	<path style="fill:#F5F5F5;" d="M367.358,437.867c-4.635,0-8.394-3.757-8.394-8.394v-5.636c0-4.637,3.758-8.394,8.394-8.394
		c4.637,0,8.394,3.757,8.394,8.394v5.636C375.752,434.11,371.994,437.867,367.358,437.867z"/>
</g>
<g style="opacity:0.55;">
	<path style="fill:#F5F5F5;" d="M367.358,404.993c-4.635,0-8.394-3.757-8.394-8.394v-161.9c0-4.637,3.758-8.394,8.394-8.394
		c4.637,0,8.394,3.757,8.394,8.394v161.9C375.752,401.236,371.994,404.993,367.358,404.993z"/>
</g>
<path style="fill:#A8F2F4;" d="M109.777,195.271v27.979h13.333h44.766h22.383c7.417,0,13.43-6.013,13.43-13.43v-14.549H109.777z"/>
<path style="fill:#636D77;" d="M150.768,144.237c-4.635,0-8.394-3.757-8.394-8.394V66.759c0-4.637,3.758-8.394,8.394-8.394h13.43
	c4.637,0,8.394,3.757,8.394,8.394c0,4.635-3.757,8.394-8.394,8.394h-5.036v60.691C159.161,140.479,155.403,144.237,150.768,144.237z
	"/>
<path style="opacity:0.15;fill:#020202;enable-background:new    ;" d="M127.683,445.454V32.898C127.683,14.727,142.411,0,160.582,0
	h-17.906c-18.17,0-32.898,14.727-32.898,32.898v412.557c0,18.167,14.728,32.898,32.898,32.898h17.906
	C142.411,478.352,127.683,463.622,127.683,445.454z"/>
<g>
</g>
<g>
</g>
<g>
</g>
<g>
</g>
<g>
</g>
<g>
</g>
<g>
</g>
<g>
</g>
<g>
</g>
<g>
</g>
<g>
</g>
<g>
</g>
<g>
</g>
<g>
</g>
<g>
</g>
</svg>
