<svg id="icons" enable-background="new 0 0 64 64" height="512" viewBox="0 0 64 64" width="512" xmlns="http://www.w3.org/2000/svg"><path d="m59.09 36.001c-1.37-2.38-1.37-5.61 0-8 .101-.18.22-.37.34-.54.08-.11.08-.229.061-.31-.01-.08-.05-.19-.17-.28-2.13-1.49-3.41-4.24-3.33-6.87.01-.56.09-1.11.229-1.64.04-.141 0-.25-.05-.32-.04-.07-.11-.16-.25-.2-1.5-.399-2.88-1.34-3.92-2.56-1.05-1.24-1.76-2.79-1.9-4.38-.02-.23-.239-.391-.42-.391-.239.021-.439.03-.64.03-1.79 0-3.61-.7-5.04-1.83-.94-.75-1.73-1.68-2.21-2.729-.12-.261-.39-.28-.56-.2-.95.439-2.061.68-3.2.68-.69 0-1.37-.08-2.03-.25-1.43-.34-2.74-1.05-3.7-2.01-.2-.2-.399-.2-.6 0-.96.96-2.271 1.66-3.7 2-.66.17-1.34.26-2.03.26-1.14 0-2.239-.24-3.2-.689-.17-.08-.439-.051-.56.21-.49 1.05-1.27 1.979-2.22 2.71-1.601 1.279-3.681 2-5.63 1.819-.221 0-.44.16-.46.391-.141 1.59-.851 3.14-1.9 4.38-1.04 1.22-2.42 2.16-3.92 2.56-.14.03-.21.13-.26.2-.04.07-.08.18-.04.32.14.529.22 1.08.229 1.64.08 2.63-1.2 5.38-3.33 6.87-.12.09-.16.2-.17.28-.02.08-.02.199.061.319.12.17.229.351.34.53 1.37 2.38 1.37 5.62 0 8-.11.18-.22.36-.34.53-.08.109-.08.229-.061.319.01.08.05.19.17.271 2.13 1.5 3.42 4.25 3.33 6.88-.01.55-.09 1.1-.229 1.63-.04.141 0 .25.05.33.04.07.11.16.25.2 1.5.4 2.88 1.34 3.92 2.56 1.06 1.24 1.76 2.79 1.9 4.38.02.23.239.391.43.391.229-.021.43-.03.64-.03 1.78 0 3.59.69 5.021 1.83.95.74 1.729 1.68 2.22 2.73.12.26.4.279.57.199.95-.439 2.06-.68 3.2-.68.689 0 1.369.08 2.02.25 1.43.34 2.74 1.04 3.7 2 .2.2.399.2.6 0 .96-.96 2.271-1.66 3.7-2 .66-.17 1.34-.25 2.03-.25 1.14 0 2.239.23 3.2.68.17.08.439.061.56-.21.49-1.05 1.27-1.989 2.22-2.72 1.601-1.26 3.67-1.979 5.63-1.81.221 0 .44-.15.46-.391.141-1.58.841-3.12 1.9-4.37 1.03-1.229 2.41-2.159 3.92-2.569.14-.03.21-.12.25-.19.05-.08.09-.189.05-.33-.14-.53-.22-1.08-.229-1.63-.09-2.63 1.2-5.38 3.33-6.88.12-.08.16-.19.17-.28.02-.08.02-.2-.061-.31-.121-.17-.231-.35-.341-.53zm1.95-11.58c1.54 1.08 1.93 3.22.84 4.771-1.08 1.54-1.08 4.069 0 5.609 1.09 1.55.7 3.7-.84 4.78s-2.41 3.45-1.92 5.28c.49 1.819-.601 3.71-2.42 4.189-1.83.49-3.45 2.431-3.61 4.311-.17 1.87-1.84 3.279-3.72 3.109s-4.07 1.101-4.86 2.811c-.8 1.71-2.85 2.45-4.55 1.66-1.71-.801-4.2-.36-5.54.97-1.33 1.34-3.51 1.34-4.84 0-1.33-1.33-3.82-1.771-5.53-.97-1.71.8-3.76.05-4.56-1.66-.79-1.71-2.98-2.97-4.86-2.811-1.88.17-3.55-1.229-3.72-3.109-.16-1.88-1.78-3.82-3.61-4.311-1.819-.479-2.91-2.37-2.42-4.189.49-1.82-.38-4.2-1.92-5.28s-1.93-3.23-.84-4.78c1.08-1.54 1.08-4.069 0-5.609-1.09-1.551-.7-3.69.84-4.771 1.54-1.09 2.41-3.46 1.92-5.28-.49-1.819.601-3.71 2.42-4.199 1.83-.48 3.45-2.42 3.61-4.301.17-1.88 1.84-3.279 3.72-3.119 1.88.17 4.07-1.101 4.86-2.811.8-1.71 2.85-2.45 4.55-1.66 1.71.8 4.2.36 5.54-.97 1.33-1.33 3.51-1.33 4.85 0 1.33 1.34 3.82 1.78 5.53.98 1.7-.801 3.75-.051 4.55 1.659s2.98 2.971 4.86 2.811c1.88-.17 3.55 1.229 3.72 3.109.16 1.881 1.78 3.82 3.61 4.301 1.819.489 2.91 2.38 2.42 4.199-.49 1.821.38 4.201 1.92 5.281z" fill="#fff"/><path d="m59.49 27.151c.02.08.02.199-.061.31-.12.17-.239.36-.34.54h-7.089v-8h3.99c-.08 2.63 1.2 5.38 3.33 6.87.12.09.16.2.17.28z" fill="#94c1ff"/><path d="m59.43 36.531c.08.109.08.229.061.31-.01.09-.05.2-.17.28-2.13 1.5-3.42 4.25-3.33 6.88h-3.991v-8h7.09c.11.18.22.36.34.53z" fill="#94c1ff"/><path d="m50.1 10.901c.141 1.59.851 3.14 1.9 4.38v4.72 8 8 8 4.72c-1.06 1.25-1.76 2.79-1.9 4.37-.02.24-.239.391-.46.391-1.96-.17-4.029.55-5.63 1.81l-.01-.011v-3.28-8-8-8-8-8-3.29c1.43 1.13 3.25 1.83 5.04 1.83.2 0 .4-.01.64-.03.18 0 .4.16.42.39z" fill="#d7e9ff"/><path d="m44 55.281.01.01c-.95.73-1.729 1.67-2.22 2.72-.12.271-.39.29-.56.21-.961-.449-2.061-.68-3.2-.68-.69 0-1.37.08-2.03.25v-.01-5.78h8z" fill="#94c1ff"/><path d="m36 36.001h8v8h-8z" fill="#94c1ff"/><path d="m36 20.001h8v8h-8z" fill="#94c1ff"/><path d="m44 8.711v3.29h-8v-5.79c.66.17 1.34.25 2.03.25 1.14 0 2.25-.24 3.2-.68.17-.08.439-.061.56.2.48 1.05 1.27 1.98 2.21 2.73z" fill="#94c1ff"/><path d="m36 57.781v.01c-1.43.34-2.74 1.04-3.7 2-.2.2-.399.2-.6 0-.96-.96-2.271-1.66-3.7-2v-.01-5.78-8-8-8-8-8-5.79-.01c1.43-.34 2.74-1.04 3.7-2 .2-.2.399-.2.6 0 .96.96 2.271 1.67 3.7 2.01v5.79 8 8 8 8 8z" fill="#d7e9ff"/><path d="m28 57.781v.01c-.65-.17-1.33-.25-2.02-.25-1.141 0-2.25.24-3.2.68-.17.08-.45.061-.57-.199-.49-1.051-1.27-1.99-2.22-2.73l.01-.01v-3.28h8z" fill="#94c1ff"/><path d="m20 36.001h8v8h-8z" fill="#94c1ff"/><path d="m20 20.001h8v8h-8z" fill="#94c1ff"/><path d="m28 6.211v5.79h-8v-3.3l-.01-.01c.95-.73 1.729-1.66 2.22-2.71.12-.261.39-.29.56-.21.961.449 2.061.689 3.2.689.69 0 1.37-.09 2.03-.26z" fill="#94c1ff"/><path d="m20 52.001v3.28l-.01.01c-1.431-1.14-3.24-1.83-5.021-1.83-.21 0-.41.01-.64.03-.19 0-.41-.16-.43-.391-.141-1.59-.841-3.14-1.9-4.38v-4.72-8-8-8-4.72c1.05-1.24 1.76-2.79 1.9-4.38.02-.23.239-.391.46-.391 1.949.181 4.029-.54 5.63-1.819l.011.011v3.3 8 8 8 8z" fill="#d7e9ff"/><path d="m12 36.001v8h-3.99c.09-2.63-1.2-5.38-3.33-6.88-.12-.08-.16-.19-.17-.271-.02-.09-.02-.21.061-.319.12-.17.229-.351.34-.53z" fill="#94c1ff"/><path d="m12 20.001v8h-7.09c-.11-.18-.22-.36-.34-.53-.08-.12-.08-.239-.061-.319.01-.08.05-.19.17-.28 2.13-1.49 3.41-4.24 3.33-6.87h3.991z" fill="#94c1ff"/><path d="m56.22 45.631c.04.141 0 .25-.05.33-.04.07-.11.16-.25.19-1.51.41-2.89 1.34-3.92 2.569v-4.72h3.99c.01.551.09 1.101.23 1.631z" fill="#d7e9ff"/><path d="m52 28.001h7.09c-1.37 2.39-1.37 5.62 0 8h-7.09z" fill="#d7e9ff"/><path d="m56.17 18.041c.05.07.09.18.05.32-.14.529-.22 1.08-.229 1.64h-3.991v-4.72c1.04 1.22 2.42 2.16 3.92 2.56.14.04.21.13.25.2z" fill="#d7e9ff"/><path d="m36 44.001h8v8h-8z" fill="#d7e9ff"/><path d="m36 28.001h8v8h-8z" fill="#d7e9ff"/><path d="m36 12.001h8v8h-8z" fill="#d7e9ff"/><path d="m20 44.001h8v8h-8z" fill="#d7e9ff"/><path d="m20 28.001h8v8h-8z" fill="#d7e9ff"/><path d="m20 12.001h8v8h-8z" fill="#d7e9ff"/><path d="m12 44.001v4.72c-1.04-1.22-2.42-2.159-3.92-2.56-.14-.04-.21-.13-.25-.2-.05-.08-.09-.189-.05-.33.14-.53.22-1.08.229-1.63z" fill="#d7e9ff"/><path d="m12 28.001v8h-7.09c1.37-2.38 1.37-5.62 0-8z" fill="#d7e9ff"/><path d="m12 15.281v4.72h-3.99c-.01-.56-.09-1.11-.229-1.64-.04-.141 0-.25.04-.32.05-.07.12-.17.26-.2 1.499-.4 2.879-1.34 3.919-2.56z" fill="#d7e9ff"/><g fill="#116fff"><path d="m32 63.916c-1.186 0-2.297-.459-3.13-1.293-.664-.666-1.771-1.079-2.892-1.079-.559 0-1.079.105-1.506.306-.59.274-1.217.413-1.864.413-1.722 0-3.301-1.003-4.022-2.556-.611-1.312-2.394-2.371-3.87-2.232-2.453.222-4.588-1.631-4.798-4.023-.129-1.475-1.444-3.044-2.873-3.427-1.138-.304-2.091-1.037-2.684-2.063-.594-1.027-.751-2.221-.445-3.359.376-1.403-.339-3.365-1.53-4.198-2-1.401-2.487-4.169-1.088-6.168.851-1.212.851-3.257.001-4.467-.678-.967-.937-2.142-.73-3.31.206-1.166.852-2.182 1.816-2.858 1.212-.849 1.913-2.771 1.53-4.199-.306-1.14-.148-2.333.445-3.359s1.546-1.759 2.685-2.063c1.404-.375 2.746-1.975 2.873-3.424.21-2.396 2.383-4.25 4.796-4.026 1.484.116 3.262-.923 3.872-2.234.723-1.553 2.302-2.556 4.021-2.556.646 0 1.273.139 1.86.413.428.2.948.306 1.506.306 1.121 0 2.229-.414 2.895-1.079.834-.837 1.946-1.297 3.132-1.297s2.299.46 3.134 1.295c.667.668 1.776 1.082 2.896 1.082.558 0 1.078-.105 1.504-.305.589-.274 1.215-.413 1.862-.413 1.72 0 3.298 1.003 4.02 2.556.609 1.311 2.389 2.355 3.87 2.234 2.424-.22 4.586 1.63 4.796 4.025.127 1.449 1.469 3.048 2.872 3.423 1.139.304 2.092 1.036 2.685 2.063s.751 2.22.445 3.36c-.376 1.401.339 3.364 1.53 4.198.966.676 1.611 1.69 1.817 2.856.206 1.168-.053 2.343-.73 3.309-.85 1.211-.85 3.256 0 4.466.678.967.937 2.143.73 3.311-.206 1.167-.852 2.182-1.817 2.857-1.191.833-1.906 2.795-1.53 4.199.306 1.138.148 2.331-.445 3.358-.593 1.026-1.546 1.76-2.685 2.063-1.403.376-2.745 1.977-2.872 3.424-.199 2.267-2.135 4.042-4.407 4.042-.129 0-.259-.006-.39-.018-1.472-.128-3.26.923-3.869 2.233-.723 1.554-2.301 2.557-4.021 2.557-.647 0-1.273-.139-1.861-.413-.428-.2-.949-.306-1.509-.306-1.12 0-2.228.413-2.892 1.078-.835.838-1.947 1.298-3.133 1.298zm-6.021-4.372c1.657 0 3.267.623 4.307 1.666.91.91 2.52.911 3.432-.003 1.041-1.042 2.651-1.665 4.308-1.665.85 0 1.664.171 2.354.493 1.181.55 2.681-.005 3.224-1.174.959-2.064 3.559-3.59 5.858-3.383 1.363.113 2.514-.894 2.629-2.207.201-2.306 2.111-4.581 4.348-5.181.622-.166 1.144-.568 1.47-1.132.325-.564.412-1.218.245-1.84-.6-2.238.418-5.029 2.315-6.356.528-.369.881-.926.994-1.567s-.028-1.285-.397-1.813c-1.332-1.896-1.332-4.867 0-6.765.369-.526.511-1.17.397-1.811s-.466-1.197-.994-1.566c-1.898-1.329-2.915-4.121-2.315-6.355.167-.624.08-1.277-.245-1.842-.325-.563-.847-.965-1.469-1.131-2.237-.597-4.147-2.872-4.349-5.18-.115-1.313-1.282-2.32-2.628-2.208-2.297.212-4.898-1.317-5.858-3.383-.543-1.168-2.039-1.727-3.223-1.174-.688.322-1.502.492-2.35.492-1.657 0-3.27-.623-4.313-1.669-.912-.912-2.523-.913-3.436.001-1.042 1.042-2.653 1.665-4.31 1.665-.849 0-1.662-.171-2.353-.493-1.181-.55-2.679.007-3.223 1.174-.96 2.064-3.545 3.589-5.859 3.383-1.318-.114-2.514.895-2.629 2.209-.201 2.308-2.112 4.584-4.35 5.181-.622.166-1.144.567-1.469 1.131s-.41 1.219-.243 1.842c.599 2.236-.417 5.028-2.314 6.356-.528.37-.881.927-.994 1.567-.113.642.028 1.285.397 1.813 1.332 1.896 1.332 4.867 0 6.764-.767 1.096-.499 2.613.598 3.382 1.896 1.327 2.914 4.118 2.314 6.355-.167.623-.08 1.276.245 1.841.326.563.848.966 1.469 1.132 2.237.6 4.147 2.876 4.349 5.184.115 1.313 1.294 2.313 2.63 2.206 2.265-.201 4.898 1.315 5.858 3.381.545 1.168 2.047 1.729 3.228 1.174.688-.323 1.503-.494 2.352-.494z"/><path d="m31.999 60.946c-.259 0-.644-.077-1.009-.445-1.223-1.226-3.098-1.958-5.012-1.958-.994 0-1.953.203-2.774.587-.189.09-.402.137-.614.137-.555 0-1.047-.315-1.284-.824-1.072-2.307-3.738-3.979-6.34-3.979-.177 0-.352.009-.556.025-.002 0-.005 0-.007 0-.813 0-1.433-.57-1.497-1.299-.239-2.742-2.426-5.349-5.088-6.063-.364-.101-.667-.335-.857-.661-.194-.344-.245-.727-.146-1.088.712-2.658-.452-5.854-2.708-7.431-.309-.218-.515-.543-.583-.917-.065-.391.017-.765.229-1.068 1.587-2.259 1.587-5.66.003-7.913-.215-.31-.297-.684-.234-1.058.071-.39.277-.715.582-.931 2.259-1.581 3.423-4.778 2.71-7.438-.098-.358-.047-.741.142-1.074.199-.342.506-.577.87-.672 2.655-.708 4.842-3.313 5.082-6.059.064-.743.69-1.304 1.454-1.304.256.019.421.025.587.025 2.57 0 5.304-1.71 6.357-3.979.327-.702 1.209-1.01 1.896-.688.82.383 1.78.586 2.772.586 1.917-.002 3.793-.734 5.017-1.961.366-.367.751-.444 1.01-.444.261 0 .648.078 1.016.451 1.223 1.223 3.1 1.956 5.015 1.956.993 0 1.952-.203 2.773-.587.725-.332 1.566-.009 1.893.689 1.073 2.307 3.739 3.979 6.341 3.979.175 0 .351-.007.557-.024h.007c.81 0 1.429.571 1.493 1.3.24 2.746 2.426 5.352 5.086 6.062.364.095.673.334.865.672.188.321.24.707.142 1.074-.713 2.66.451 5.855 2.708 7.434.309.218.514.542.582.915.066.394-.018.77-.233 1.073-1.581 2.252-1.582 5.653.002 7.908.216.311.298.686.233 1.06-.068.385-.274.711-.582.927-2.258 1.579-3.423 4.775-2.71 7.436.098.358.047.741-.142 1.075-.197.338-.502.572-.863.67-2.663.714-4.849 3.319-5.088 6.062-.065.742-.69 1.302-1.453 1.302-.253-.018-.416-.024-.58-.024-2.574 0-5.312 1.71-6.365 3.978-.323.696-1.201 1.007-1.888.691-.828-.387-1.788-.59-2.782-.59-1.916 0-3.791.732-5.016 1.96-.37.368-.755.445-1.013.445zm-6.02-4.403c2.233 0 4.442.802 6.021 2.167 1.578-1.365 3.789-2.169 6.025-2.169 1.087 0 2.15.192 3.11.559 1.536-2.748 4.836-4.675 8.033-4.638.505-3.147 2.948-6.06 5.962-7.106-.6-3.134.701-6.704 3.174-8.717-1.639-2.733-1.64-6.535 0-9.274-2.474-2.01-3.775-5.583-3.174-8.716-3.015-1.047-5.456-3.957-5.961-7.106-3.202.055-6.495-1.885-8.033-4.639-.953.365-2.019.558-3.106.558-2.236 0-4.449-.804-6.03-2.172-1.579 1.365-3.789 2.168-6.025 2.17-1.086 0-2.149-.192-3.109-.559-1.517 2.716-4.755 4.639-7.918 4.639-.039 0-.078 0-.116 0-.506 3.15-2.948 6.063-5.963 7.107.6 3.134-.701 6.704-3.174 8.717 1.641 2.732 1.642 6.536 0 9.277 2.474 2.008 3.776 5.582 3.175 8.717 3.01 1.046 5.455 3.959 5.961 7.106 3.19-.092 6.497 1.883 8.035 4.639.959-.368 2.024-.56 3.113-.56z"/><path d="m12 49.725c-.553 0-1-.447-1-1v-33.444c0-.553.447-1 1-1s1 .447 1 1v33.443c0 .553-.447 1.001-1 1.001z"/><path d="m20 56.287c-.553 0-1-.447-1-1v-46.582c0-.553.447-1 1-1s1 .447 1 1v46.582c0 .553-.447 1-1 1z"/><path d="m28 58.785c-.553 0-1-.447-1-1v-51.57c0-.553.447-1 1-1s1 .447 1 1v51.57c0 .553-.447 1-1 1z"/><path d="m36 58.785c-.553 0-1-.447-1-1v-51.568c0-.553.447-1 1-1s1 .447 1 1v51.568c0 .553-.447 1-1 1z"/><path d="m44 56.287c-.553 0-1-.447-1-1v-46.57c0-.553.447-1 1-1s1 .447 1 1v46.57c0 .553-.447 1-1 1z"/><path d="m52 49.721c-.553 0-1-.447-1-1v-33.438c0-.553.447-1 1-1s1 .447 1 1v33.438c0 .552-.447 1-1 1z"/><path d="m28 13h-8c-.553 0-1-.447-1-1s.447-1 1-1h8c.553 0 1 .447 1 1s-.447 1-1 1z"/><path d="m44 13h-8c-.553 0-1-.447-1-1s.447-1 1-1h8c.553 0 1 .447 1 1s-.447 1-1 1z"/><path d="m11.999 21h-3.985c-.553 0-1-.447-1-1s.447-1 1-1h3.985c.553 0 1 .447 1 1s-.447 1-1 1z"/><path d="m27.999 21h-8c-.553 0-1-.447-1-1s.447-1 1-1h8c.553 0 1 .447 1 1s-.447 1-1 1z"/><path d="m44 21h-8c-.553 0-1-.447-1-1s.447-1 1-1h8c.553 0 1 .447 1 1s-.447 1-1 1z"/><path d="m55.985 21h-3.985c-.553 0-1-.447-1-1s.447-1 1-1h3.985c.553 0 1 .447 1 1s-.447 1-1 1z"/><path d="m12 29h-7.09c-.553 0-1-.447-1-1s.447-1 1-1h7.09c.553 0 1 .447 1 1s-.447 1-1 1z"/><path d="m28 29h-8c-.553 0-1-.447-1-1s.447-1 1-1h8c.553 0 1 .447 1 1s-.447 1-1 1z"/><path d="m44 29h-8c-.553 0-1-.447-1-1s.447-1 1-1h8c.553 0 1 .447 1 1s-.447 1-1 1z"/><path d="m59.091 29h-7.091c-.553 0-1-.447-1-1s.447-1 1-1h7.091c.553 0 1 .447 1 1s-.447 1-1 1z"/><path d="m11.999 37h-7.089c-.553 0-1-.447-1-1s.447-1 1-1h7.089c.553 0 1 .447 1 1s-.447 1-1 1z"/><path d="m28 37h-8c-.553 0-1-.447-1-1s.447-1 1-1h8c.553 0 1 .447 1 1s-.447 1-1 1z"/><path d="m44 37h-8c-.553 0-1-.447-1-1s.447-1 1-1h8c.553 0 1 .447 1 1s-.447 1-1 1z"/><path d="m59.157 37h-7.158c-.553 0-1-.447-1-1s.447-1 1-1h7.158c.553 0 1 .447 1 1s-.447 1-1 1z"/><path d="m12 45h-3.985c-.553 0-1-.447-1-1s.447-1 1-1h3.985c.553 0 1 .447 1 1s-.447 1-1 1z"/><path d="m28 45h-8c-.553 0-1-.447-1-1s.447-1 1-1h8c.553 0 1 .447 1 1s-.447 1-1 1z"/><path d="m44 45h-8c-.553 0-1-.447-1-1s.447-1 1-1h8c.553 0 1 .447 1 1s-.447 1-1 1z"/><path d="m55.986 45h-3.986c-.553 0-1-.447-1-1s.447-1 1-1h3.986c.553 0 1 .447 1 1s-.447 1-1 1z"/><path d="m27.999 53h-7.999c-.553 0-1-.447-1-1s.447-1 1-1h7.999c.553 0 1 .447 1 1s-.447 1-1 1z"/><path d="m43.999 53h-7.999c-.553 0-1-.447-1-1s.447-1 1-1h7.999c.553 0 1 .447 1 1s-.447 1-1 1z"/></g></svg>