<svg height="512pt" viewBox="-39 0 512 512.001" width="512pt" xmlns="http://www.w3.org/2000/svg"><path d="m336.882812 357.925781h-29.910156c-3.214844 2.042969-6.019531 4.539063-7.898437 7.230469l-20.417969 29.265625c-4.792969 6.867187-15.570312 12.488281-23.949219 12.488281h-18.035156c-8.378906 0-21.773437-2.058594-29.765625-4.566406l-42.367188-13.320312c-7.996093-2.511719-17.628906-10.679688-21.410156-18.152344l-6.550781-12.945313h-42.144531l18.484375 35.480469c3.871093 7.429688 13.019531 16.847656 20.332031 20.9375l58.871094 32.90625c4.609375 2.578125 8.6875 7.585938 11.074218 13.03125h104.59375v-11.46875c0-8.375 2.703126-21.523438 6.003907-29.222656l22.707031-52.929688c1.417969-3.300781 1.457031-6.335937.382812-8.734375zm0 0" fill="#ffe2b8"/><path d="m203.195312 460.28125h19.09375v-4.398438c0-8.375-5.984374-18.570312-13.296874-22.65625l-58.867188-32.910156c-7.316406-4.089844-16.464844-13.507812-20.332031-20.9375l-11.179688-21.453125h-24.179687l18.484375 35.480469c3.871093 7.429688 13.019531 16.847656 20.332031 20.9375l58.871094 32.90625c4.609375 2.578125 8.6875 7.585938 11.074218 13.03125zm0 0" fill="#ffc987"/><path d="m229.738281 128.53125v-15.640625c-3.722656 1.292969-7.910156 2.019531-12.335937 2.019531-4.429688 0-8.613282-.726562-12.335938-2.019531v15.640625c4.09375-.265625 8.207032-.410156 12.335938-.410156s8.242187.144531 12.335937.410156zm0 0" fill="#8a8c8e"/><path d="m246.269531 95.398438c0-11.332032-12.925781-20.515626-28.867187-20.515626s-28.867188 9.183594-28.867188 20.515626c0 11.328124 12.925782 20.515624 28.867188 20.515624s28.867187-9.1875 28.867187-20.515624zm0 0" fill="#c7c8ca"/><path d="m209.433594 95.398438c0-8.710938 7.644531-16.152344 18.417968-19.128907-3.242187-.894531-6.761718-1.390625-10.449218-1.390625-15.941406 0-28.867188 9.1875-28.867188 20.519532 0 11.328124 12.925782 20.515624 28.867188 20.515624 3.6875 0 7.207031-.496093 10.449218-1.394531-10.777343-2.972656-18.417968-10.414062-18.417968-19.121093zm0 0" fill="#a7a9ac"/><path d="m406.191406 298.789062c-8.957031-96.285156-90.054687-171.667968-188.789062-171.667968s-179.832032 75.382812-188.789063 171.667968zm0 0" fill="#abebff"/><path d="m62.511719 298.789062c8.4375-90.710937 80.914062-162.855468 171.839843-170.902343-5.585937-.496094-11.234374-.765625-16.949218-.765625-98.734375 0-179.832032 75.382812-188.789063 171.667968zm0 0" fill="#76d8ff"/><path d="m16.195312 323.40625 18.96875 27.03125c3.21875 4.667969 10.492188 8.484375 16.164063 8.484375h332.148437c5.671876 0 12.945313-3.816406 16.167969-8.484375l18.964844-27.03125zm0 0" fill="#c7c8ca"/><path d="m80.957031 350.4375-18.96875-27.03125h-45.792969l18.96875 27.03125c3.21875 4.667969 10.492188 8.488281 16.164063 8.488281h45.792969c-5.671875 0-12.945313-3.820312-16.164063-8.488281zm0 0" fill="#a7a9ac"/><path d="m434.804688 319.332031c0 2.792969-2.285157 5.074219-5.078126 5.074219h-424.648437c-2.792969 0-5.078125-2.28125-5.078125-5.074219v-16.46875c0-2.789062 2.285156-5.074219 5.078125-5.074219h424.648437c2.792969 0 5.078126 2.285157 5.078126 5.074219zm0 0" fill="#8a8c8e"/><path d="m31.542969 319.332031v-16.46875c0-2.789062 2.285156-5.074219 5.078125-5.074219h-31.542969c-2.792969 0-5.078125 2.285157-5.078125 5.074219v16.46875c0 2.792969 2.285156 5.074219 5.078125 5.074219h31.542969c-2.792969 0-5.078125-2.28125-5.078125-5.074219zm0 0" fill="#6d6e71"/><g fill="#ffaf10"><path d="m114.613281 120.550781h-27.816406c-17.875 0-32.414063-14.546875-32.414063-32.421875 0-17.878906 14.539063-32.421875 32.414063-32.421875h18.550781c4.144532 0 7.5 3.355469 7.5 7.5s-3.355468 7.5-7.5 7.5h-18.550781c-9.601563 0-17.414063 7.816407-17.414063 17.421875 0 9.605469 7.8125 17.421875 17.414063 17.421875h27.816406c4.144531 0 7.5 3.355469 7.5 7.5 0 4.140625-3.355469 7.5-7.5 7.5zm0 0"/><path d="m156.039062 70.707031h-21.765624c-4.140626 0-7.5-3.355469-7.5-7.5s3.359374-7.5 7.5-7.5h21.765624c11.21875 0 20.347657-9.128906 20.347657-20.351562 0-11.222657-9.128907-20.355469-20.347657-20.355469h-24.574218c-4.140625 0-7.5-3.355469-7.5-7.5s3.359375-7.5 7.5-7.5h24.574218c19.492188 0 35.347657 15.859375 35.347657 35.355469 0 19.492187-15.855469 35.351562-35.347657 35.351562zm0 0"/><path d="m344.089844 26.902344h-15.578125c-4.140625 0-7.5 3.355468-7.5 7.5 0 4.140625 3.359375 7.5 7.5 7.5h15.578125c8.3125 0 15.074218 6.761718 15.074218 15.078125 0 8.316406-6.761718 15.078125-15.074218 15.078125h-44.804688c-14.566406 0-26.414062 11.851562-26.414062 26.421875v15.097656c0 4.144531 3.355468 7.5 7.5 7.5 4.140625 0 7.5-3.355469 7.5-7.5v-15.097656c0-6.296875 5.121094-11.421875 11.414062-11.421875h44.804688c16.582031 0 30.074218-13.492188 30.074218-30.078125 0-16.585938-13.492187-30.078125-30.074218-30.078125zm0 0"/></g><path d="m323.796875 459.28125h-140.828125c-2.792969 0-5.078125 2.285156-5.078125 5.074219v42.570312c0 2.789063 2.285156 5.074219 5.078125 5.074219h140.828125c2.792969 0 5.078125-2.285156 5.078125-5.074219v-42.570312c0-2.789063-2.285156-5.074219-5.078125-5.074219zm0 0" fill="#02af8e"/><path d="m209.621094 506.925781v-16.355469h-10.5c-4.140625 0-7.5-3.355468-7.5-7.5 0-4.140624 3.359375-7.5 7.5-7.5h10.5v-11.214843c0-2.789063 2.285156-5.074219 5.078125-5.074219h-31.730469c-2.792969 0-5.078125 2.285156-5.078125 5.074219v42.570312c0 2.789063 2.285156 5.074219 5.078125 5.074219h31.730469c-2.792969 0-5.078125-2.28125-5.078125-5.074219zm0 0" fill="#159e97"/><path d="m212.324219 490.570312h-13.203125c-4.140625 0-7.5-3.355468-7.5-7.5 0-4.140624 3.359375-7.5 7.5-7.5h13.203125c4.140625 0 7.5 3.359376 7.5 7.5 0 4.144532-3.359375 7.5-7.5 7.5zm0 0" fill="#fff"/><path d="m323.796875 459.28125h-39.363281v52.71875h39.363281c2.792969 0 5.078125-2.28125 5.078125-5.074219v-42.566406c0-2.792969-2.285156-5.078125-5.078125-5.078125zm0 0" fill="#008e83"/></svg>