<svg height="512pt" viewBox="0 0 512 512" width="512pt" xmlns="http://www.w3.org/2000/svg"><path d="m306.085938 324.917969v131.667969h-204.296876v-131.667969c0-33.738281 23.015626-62.109375 54.210938-70.257813 5.882812-1.546875 12.050781-2.359375 18.417969-2.359375h59.042969c7.703124 0 15.132812 1.195313 22.09375 3.417969 29.308593 9.34375 50.53125 36.796875 50.53125 69.199219zm0 0" fill="#d0f4ef"/><g fill="#abe0da"><path d="m306.085938 324.917969v131.667969h-33.695313v-131.667969c0-32.398438-21.222656-59.855469-50.53125-69.199219-6.964844-2.222656-14.390625-3.417969-22.097656-3.417969h33.699219c7.703124 0 15.132812 1.195313 22.097656 3.417969 29.304687 9.34375 50.527344 36.796875 50.527344 69.199219zm0 0"/><path d="m255.558594 255.71875c-13.445313 10.847656-30.546875 17.347656-49.128906 17.347656-19.183594 0-36.789063-6.921875-50.429688-18.410156 5.882812-1.542969 12.054688-2.355469 18.421875-2.355469h59.039063c7.703124 0 15.132812 1.191407 22.097656 3.417969zm0 0"/><path d="m155.652344 461.222656c-4.269532 0-7.726563-3.460937-7.726563-7.726562v-137.425782c0-4.265624 3.460938-7.722656 7.726563-7.722656 4.269531 0 7.726562 3.457032 7.726562 7.722656v137.425782c0 4.265625-3.457031 7.726562-7.726562 7.726562zm0 0"/><path d="m252.226562 360.433594c-4.265624 0-7.726562-3.457032-7.726562-7.726563v-36.636719c0-4.265624 3.460938-7.722656 7.726562-7.722656 4.269532 0 7.726563 3.457032 7.726563 7.722656v36.636719c0 4.269531-3.460937 7.726563-7.726563 7.726563zm0 0"/><path d="m252.226562 426.195312c-4.265624 0-7.726562-3.460937-7.726562-7.726562v-70.835938c0-4.269531 3.460938-7.726562 7.726562-7.726562 4.269532 0 7.726563 3.457031 7.726563 7.726562v70.835938c0 4.265625-3.460937 7.726562-7.726563 7.726562zm0 0"/><path d="m220.328125 337.585938c-.011719 0-.019531 0-.027344 0h-.144531c-4.265625-.015626-7.710938-3.488282-7.695312-7.753907.011718-4.257812 3.46875-7.699219 7.722656-7.699219h.027344.140624c4.269532.015626 7.714844 3.488282 7.699219 7.753907-.011719 4.257812-3.46875 7.699219-7.722656 7.699219zm0 0"/><path d="m220.382812 381.769531c-.019531 0-.035156 0-.054687 0h-.140625c-4.265625-.03125-7.703125-3.515625-7.671875-7.78125.03125-4.269531 3.539063-7.726562 7.78125-7.671875h.140625c4.269531.03125 7.703125 3.515625 7.671875 7.78125-.03125 4.25-3.484375 7.671875-7.726563 7.671875zm0 0"/><path d="m220.4375 423.378906c-.011719 0-.019531 0-.027344 0h-.140625c-4.269531-.015625-7.714843-3.488281-7.699219-7.753906.015626-4.257812 3.46875-7.699219 7.722657-7.699219h.027343.144532c4.265625.015625 7.710937 3.488281 7.695312 7.753907-.011718 4.257812-3.46875 7.699218-7.722656 7.699218zm0 0"/></g><path d="m272.476562 194.660156c0 36.476563-29.570312 66.050782-66.050781 66.050782-36.476562 0-66.050781-29.574219-66.050781-66.050782 0-36.480468 29.574219-66.050781 66.050781-66.050781 36.480469 0 66.050781 29.570313 66.050781 66.050781zm0 0" fill="#fecaa8"/><path d="m272.390625 191.28125c-5.75 3.761719-12.621094 5.949219-19.988281 5.949219h-64.285156c-17.640626 0-33.769532-6.574219-46.058594-17.425781.992187-4.351563 2.425781-8.542969 4.238281-12.519532 10.40625-22.824218 33.425781-38.667968 60.125-38.667968 35.339844 0 64.203125 27.753906 65.96875 62.664062zm0 0" fill="#ffb38c"/><path d="m275.328125 137.75v22.882812c0 12.664063-10.261719 22.929688-22.925781 22.929688h-64.285156c-30.96875 0-56.0625-25.105469-56.0625-56.0625v-15.023438c0-4.601562 3.726562-8.335937 8.339843-8.335937h101.324219c4.472656 0 8.757812.875 12.664062 2.472656 12.289063 4.996094 20.945313 17.046875 20.945313 31.136719zm0 0" fill="#ffdf49"/><path d="m254.382812 106.609375v7.679687c0 12.277344-9.988281 22.265626-22.265624 22.265626h-57.109376c-12.277343 0-22.269531-9.988282-22.269531-22.265626v-10.148437h88.980469c4.476562 0 8.757812.875 12.664062 2.46875zm0 0" fill="#ffbd47"/><path d="m232.117188 122.890625h-57.109376c-4.746093 0-8.597656-3.847656-8.597656-8.597656v-76.355469h74.308594v76.355469c0 4.75-3.851562 8.597656-8.601562 8.597656zm0 0" fill="#abe0da"/><path d="m245.964844 0c-8.675782 0-16.351563 4.175781-21.199219 10.609375-4.847656-6.433594-12.527344-10.609375-21.199219-10.609375-8.675781 0-16.355468 4.175781-21.203125 10.609375-4.84375-6.433594-12.523437-10.609375-21.199219-10.609375-14.667968 0-26.558593 11.890625-26.558593 26.558594 0 14.667968 11.890625 26.5625 26.558593 26.5625 8.675782 0 16.355469-4.179688 21.199219-10.609375 4.847657 6.433593 12.527344 10.609375 21.203125 10.609375 8.671875 0 16.351563-4.179688 21.199219-10.609375 4.847656 6.433593 12.523437 10.609375 21.199219 10.609375 14.667968 0 26.5625-11.894532 26.5625-26.5625-.003906-14.667969-11.894532-26.558594-26.5625-26.558594zm0 0" fill="#d0f4ef"/><path d="m497.761719 362.925781h-32.410157c-7.863281 0-14.238281-6.375-14.238281-14.238281 0-7.859375 6.375-14.234375 14.238281-14.234375h32.410157c7.863281 0 14.238281 6.375 14.238281 14.234375 0 7.863281-6.375 14.238281-14.238281 14.238281zm0 0" fill="#95c6df"/><path d="m291.113281 362.925781h-32.414062c-7.863281 0-14.234375-6.375-14.234375-14.238281s6.371094-14.234375 14.234375-14.234375h32.414062c7.863281 0 14.238281 6.375 14.238281 14.234375 0 7.863281-6.375 14.238281-14.238281 14.238281zm0 0" fill="#95c6df"/><path d="m469.628906 340.042969v119.007812c0 17.605469-14.269531 31.878907-31.875 31.878907h-119.042968c-17.605469 0-31.878907-14.273438-31.878907-31.878907v-119.007812c0-5.523438 4.476563-10 10-10h162.796875c5.523438 0 10 4.476562 10 10zm0 0" fill="#4c78a0"/><path d="m469.632812 340.039062v119.015626c0 17.605468-14.273437 31.878906-31.882812 31.878906h-31.285156c17.59375 0 31.878906-14.273438 31.878906-31.878906v-129.015626h21.289062c5.519532 0 10 4.476563 10 10zm0 0" fill="#336686"/><path d="m395.769531 272.453125c-7.007812-3.566406-9.796875-12.140625-6.226562-19.148437l7.089843-13.925782c3.566407-7.007812 12.140626-9.796875 19.148438-6.230468 7.003906 3.570312 9.792969 12.140624 6.226562 19.148437l-7.089843 13.929687c-3.570313 7.003907-12.140625 9.792969-19.148438 6.226563zm0 0" fill="#d0f4ef"/><path d="m464.074219 333.914062-158.1875-80.535156c-4.921875-2.507812-6.878907-8.527344-4.375-13.449218l2.410156-4.730469c6.570313-12.910157 22.363281-18.046875 35.273437-11.476563l129.261719 65.808594c12.90625 6.574219 18.046875 22.367188 11.472657 35.277344l-2.410157 4.730468c-2.503906 4.921876-8.523437 6.882813-13.445312 4.375zm0 0" fill="#4c78a0"/><path d="m79.199219 336.722656h29.957031v52.191406h-29.957031zm0 0" fill="#d6bcab"/><path d="m77.644531 354.273438h33.066407c2.761718 0 5-2.238282 5-5v-10.695313c0-5.292969-4.289063-9.582031-9.582032-9.582031h-23.902344c-5.289062 0-9.578124 4.292968-9.578124 9.582031v10.695313c-.003907 2.761718 2.234374 5 4.996093 5zm0 0" fill="#9ac6c3"/><path d="m126.003906 396.382812.003906 73.242188c0 6.289062-5.097656 11.386719-11.386718 11.390625h-40.882813c-6.289062 0-11.386719-5.101563-11.386719-11.390625l-.003906-73.242188c0-7.082031 5.742188-12.820312 12.8125-12.820312h38.03125c7.078125.003906 12.8125 5.734375 12.8125 12.820312zm0 0" fill="#fff0cf"/><path d="m16.851562 336.722656h29.957032v52.191406h-29.957032zm0 0" fill="#a46243"/><path d="m15.296875 354.273438h33.066406c2.757813 0 5-2.238282 5-5v-10.695313c0-5.292969-4.292969-9.582031-9.582031-9.582031h-23.902344c-5.292968 0-9.582031 4.292968-9.582031 9.582031v10.695313c0 2.761718 2.238281 5 5 5zm0 0" fill="#9ac6c3"/><path d="m63.65625 396.382812.003906 73.242188c0 6.289062-5.097656 11.386719-11.386718 11.390625h-40.882813c-6.289063 0-11.38671875-5.101563-11.38671875-11.390625l-.00390625-73.242188c0-7.082031 5.738281-12.820312 12.8125-12.820312h1.046875l36.984375.003906c7.078125 0 12.8125 5.730469 12.8125 12.816406zm0 0" fill="#c87c5b"/><path d="m507.011719 469.695312c0 23.304688-18.890625 42.195313-42.191407 42.195313-23.304687 0-42.195312-18.890625-42.195312-42.195313 0-23.300781 18.890625-31.769531 42.195312-31.769531 23.300782 0 42.191407 8.46875 42.191407 31.769531zm0 0" fill="#e6f072"/><path d="m507.007812 469.695312c0 23.308594-18.882812 42.191407-42.191406 42.191407-4.527344 0-8.878906-.710938-12.960937-2.027344 16.96875-5.460937 29.25-21.378906 29.25-40.164063 0-18.773437-12.28125-27.921874-29.25-30.761718 4.082031-.6875 8.433593-1.007813 12.960937-1.007813 23.308594 0 42.191406 8.472657 42.191406 31.769531zm0 0" fill="#a2d961"/><path d="m273.148438 459.753906 51.480468-9.054687c7.542969-1.324219 12.582032-8.515625 11.257813-16.058594-1.328125-7.546875-8.519531-12.585937-16.0625-11.257813l-51.480469 9.050782zm0 0" fill="#a2d961"/><path d="m297.976562 430.527344 5.0625 28.804687c2.988282 16.992188-10.085937 32.5625-27.335937 32.558594l-147.222656-.03125c-18.671875-.003906-23.238281-25.992187-5.691407-32.363281l138.382813-50.25c16.214844-5.886719 33.816406 4.289062 36.804687 21.28125zm0 0" fill="#ff9921"/><path d="m299.457031 438.988281 3.578125 20.351563c2.988282 16.984375-10.085937 32.554687-27.335937 32.546875l-147.214844-.03125c-13.972656 0-20.054687-14.554688-14.855469-24.546875 2.78125 2.5625 6.582032 4.210937 11.28125 4.207031l147.214844.03125c17.246094.003906 30.320312-15.5625 27.332031-32.558594zm0 0" fill="#f47a00"/><path d="m244.851562 453.152344c-.453124.082031-.90625.125-1.347656.125-3.679687 0-6.941406-2.648438-7.601562-6.398438l-5.945313-26.300781 14.371094-5.210937c.382813.699218.648437 1.460937.792969 2.285156l6.007812 26.558594c.730469 4.191406-2.074218 8.199218-6.277344 8.941406zm0 0" fill="#f47a00"/><path d="m213.226562 491.878906-14.703124-.011718c-.113282-.332032-.195313-.679688-.257813-1.03125l-3.398437-19.316407-2.058594-11.722656c-.734375-4.203125 2.070312-8.210937 6.273437-8.949219 4.214844-.734375 8.210938 2.070313 8.949219 6.273438l2.535156 14.410156 2.914063 16.628906c.230469 1.285156.125 2.554688-.253907 3.71875zm0 0" fill="#f47a00"/></svg>