<svg id="icons" enable-background="new 0 0 64 64" height="512" viewBox="0 0 64 64" width="512" xmlns="http://www.w3.org/2000/svg"><path d="m25 49.01 6.99 2.5-7 2.5v8.98h-14.99v-5.97c0-4.43 3.57-8.01 8-8.01h6.99z" fill="#5c9eff"/><path d="m54 57.01v5.98h-29.01v-8.98l7-2.5h.01l6.99-2.5h.01 7c4.42 0 8 3.58 8 8z" fill="#94c1ff"/><path d="m39 43.279v5.73h-.01l-6.99 2.501h-.01l-6.99-2.5v-5.73c2.09 1.101 4.47 1.73 7 1.73s4.91-.63 7-1.731z" fill="#d7e9ff"/><path d="m34.5 32.01c-1.38 0-2.5 1.11-2.5 2.5 0-1.39-1.12-2.5-2.5-2.5h-6.5c-1.11 0-2-.9-2-2v2c0 2.76 2.229 5 5 5h3.5c1.38 0 2.5-1.12 2.5-2.5 0 1.38 1.12 2.5 2.5 2.5h3.5c2.76 0 5-2.24 5-5v-2h-.01c0 1.1-.891 2-1.99 2zm12.5-8v6c0 5.76-3.24 10.76-8 13.27-2.09 1.101-4.47 1.73-7 1.73s-4.91-.63-7-1.73c-4.76-2.51-8-7.51-8-13.27v-6z" fill="#d7e9ff"/><path d="m42.996 24.01v6h.004v2c0 .922-.268 1.775-.704 2.518-1.193 3.788-3.842 6.929-7.3 8.752-1.528.805-3.214 1.354-4.998 1.594.655.087 1.322.136 2.002.136 2.53 0 4.91-.63 7-1.73 4.76-2.51 8-7.51 8-13.27v-6z" fill="#94c1ff"/><path d="m23 32.01h6.5c1.38 0 2.5 1.11 2.5 2.5 0 1.38-1.12 2.5-2.5 2.5h-3.5c-2.771 0-5-2.24-5-5v-2c0 1.099.89 2 2 2z" fill="#94c1ff"/><path d="m41 32.01c1.1 0 1.99-.9 1.99-2h.01v2c0 2.76-2.24 5-5 5h-3.5c-1.38 0-2.5-1.12-2.5-2.5 0-1.39 1.12-2.5 2.5-2.5z" fill="#94c1ff"/><path d="m47.01 17.72-.01 6.29h-30l.01-6.29c-2.89-.86-5-3.53-5-6.71 0-3.86 3.13-7 7-7h5.86c1.819-1.85 4.35-3 7.14-3 2.8 0 5.33 1.15 7.14 3h5.841c3.869 0 7 3.14 7 7-.001 3.17-2.092 5.84-4.981 6.71z" fill="#94c1ff"/><path d="m44.99 4.01h-4.004c3.869 0 7 3.14 7 7 0 3.17-2.091 5.84-4.98 6.71l-.01 6.29h4.004l.01-6.29c2.89-.87 4.98-3.54 4.98-6.71 0-3.861-3.131-7-7-7z" fill="#5c9eff"/><g fill="#116fff"><path d="m10 58.005c-.553 0-1-.447-1-1 0-4.964 4.038-9.002 9.002-9.002.553 0 1 .447 1 1s-.447 1-1 1c-3.861 0-7.002 3.141-7.002 7.002 0 .553-.447 1-1 1z"/><path d="m54 58.004c-.553 0-1-.447-1-1 0-3.859-3.141-7-7-7-.553 0-1-.447-1-1s.447-1 1-1c4.963 0 9 4.037 9 9 0 .553-.447 1-1 1z"/><path d="m25 50.004-6.998-.001c-.553 0-1-.448-1-1 0-.553.448-1 1-1l6.998.001c.553 0 1 .448 1 1 0 .553-.448 1-1 1z"/><path d="m46 50.004-7-.001c-.553 0-1-.448-1-1 0-.553.448-1 1-1l7 .001c.553 0 1 .448 1 1 0 .553-.448 1-1 1z"/><path d="m10 63.982c-.553 0-1-.447-1-1v-5.978c0-.553.447-1 1-1s1 .447 1 1v5.978c0 .553-.447 1-1 1z"/><path d="m54 63.982c-.553 0-1-.447-1-1v-5.979c0-.553.447-1 1-1s1 .447 1 1v5.979c0 .553-.447 1-1 1z"/><path d="m25 50.004c-.553 0-1-.447-1-1v-5.731c0-.553.447-1 1-1s1 .447 1 1v5.731c0 .553-.447 1-1 1z"/><path d="m39 50.003c-.553 0-1-.447-1-1v-5.73c0-.553.447-1 1-1s1 .447 1 1v5.73c0 .553-.447 1-1 1z"/><path d="m32 46.003c-8.822 0-16-7.178-16-16 0-.552.447-1 1-1s1 .448 1 1c0 7.72 6.28 14 14 14s14-6.28 14-14c0-.552.447-1 1-1s1 .448 1 1c0 8.822-7.178 16-16 16z"/><path d="m17 31.003c-.554 0-1.001-.449-1-1.001l.016-12.29c.001-.552.448-.999 1-.999h.001c.553 0 1 .449.999 1.001l-.016 12.29c-.001.552-.448.999-1 .999z"/><path d="m47 31.003c-.554 0-1.001-.449-1-1.001l.016-12.298c.001-.552.448-.999 1-.999h.001c.553 0 1 .449.999 1.001l-.016 12.298c-.001.552-.448.999-1 .999z"/><path d="m38 37.994c-.553 0-1-.447-1-1s.447-1 1-1c2.206 0 4-1.794 4-4 0-.552.447-1 1-1s1 .448 1 1c0 3.309-2.691 6-6 6z"/><path d="m41 32.994c-.553 0-1-.448-1-1s.447-1 1-1c.551 0 .998-.448.998-.998 0-.552.447-1 1-1s1 .448 1 1c0 1.653-1.345 2.998-2.998 2.998z"/><path d="m41 32.994h-6.5c-.553 0-1-.448-1-1s.447-1 1-1h6.5c.553 0 1 .448 1 1s-.447 1-1 1z"/><path d="m38 37.994h-3.5c-.553 0-1-.447-1-1s.447-1 1-1h3.5c.553 0 1 .447 1 1s-.447 1-1 1z"/><path d="m34.5 37.994c-1.93 0-3.5-1.57-3.5-3.5s1.57-3.5 3.5-3.5c.553 0 1 .448 1 1s-.447 1-1 1c-.827 0-1.5.673-1.5 1.5s.673 1.5 1.5 1.5c.553 0 1 .447 1 1s-.447 1-1 1z"/><path d="m43 32.994c-.553 0-1-.448-1-1v-1.998c0-.552.447-1 1-1s1 .448 1 1v1.998c0 .552-.447 1-1 1z"/><path d="m26 37.994c-3.309 0-6-2.691-6-6 0-.552.447-1 1-1s1 .448 1 1c0 2.206 1.794 4 4 4 .553 0 1 .447 1 1s-.447 1-1 1z"/><path d="m23 32.994c-1.653 0-2.998-1.345-2.998-2.998 0-.552.447-1 1-1s1 .448 1 1c0 .55.447.998.998.998.553 0 1 .448 1 1s-.447 1-1 1z"/><path d="m29.5 32.994h-6.5c-.553 0-1-.448-1-1s.447-1 1-1h6.5c.553 0 1 .448 1 1s-.447 1-1 1z"/><path d="m29.5 37.994h-3.5c-.553 0-1-.447-1-1s.447-1 1-1h3.5c.553 0 1 .447 1 1s-.447 1-1 1z"/><path d="m29.5 37.994c-.553 0-1-.447-1-1s.447-1 1-1c.827 0 1.5-.673 1.5-1.5s-.673-1.5-1.5-1.5c-.553 0-1-.448-1-1s.447-1 1-1c1.93 0 3.5 1.57 3.5 3.5s-1.57 3.5-3.5 3.5z"/><path d="m21 32.994c-.553 0-1-.448-1-1v-1.998c0-.552.447-1 1-1s1 .448 1 1v1.998c0 .552-.447 1-1 1z"/><path d="m47 25.003h-30c-.553 0-1-.448-1-1s.447-1 1-1h30c.553 0 1 .448 1 1s-.447 1-1 1z"/><path d="m19.014 19.003c-4.411 0-8-3.589-8-8s3.589-8 8-8c.553 0 1 .448 1 1s-.447 1-1 1c-3.309 0-6 2.691-6 6s2.691 6 6 6c.553 0 1 .448 1 1s-.448 1-1 1z"/><path d="m44.998 19.001c-.553 0-1-.448-1-1s.447-1 1-1c3.309 0 6-2.691 6-6s-2.691-6-6-6c-.553 0-1-.448-1-1s.447-1 1-1c4.411 0 8 3.589 8 8s-3.589 8-8 8z"/><path d="m42.016 12c-.553 0-1-.448-1-1 0-4.962-4.037-9-9-9s-9 4.038-9 9c0 .552-.447 1-1 1s-1-.448-1-1c0-6.065 4.935-11 11-11s11 4.935 11 11c0 .552-.448 1-1 1z"/><path d="m24.875 5.003h-5.861c-.553 0-1-.448-1-1s.447-1 1-1h5.861c.553 0 1 .448 1 1s-.447 1-1 1z"/><path d="m44.998 5.001h-5.842c-.553 0-1-.448-1-1s.447-1 1-1h5.842c.553 0 1 .448 1 1s-.447 1-1 1z"/><path d="m24.997 55.002c-.411 0-.796-.255-.941-.664-.187-.52.085-1.092.605-1.277l14.001-4.998c.518-.189 1.092.085 1.277.605.187.52-.085 1.092-.605 1.277l-14.001 4.998c-.11.04-.225.059-.336.059z"/><path d="m31.999 52.503c-.111 0-.225-.019-.336-.059l-7.001-2.499c-.521-.186-.792-.758-.605-1.277.185-.521.753-.795 1.277-.605l7.001 2.499c.521.186.792.758.605 1.277-.145.409-.53.664-.941.664z"/><path d="m24.997 64c-.553 0-1-.447-1-1v-8.998c0-.553.447-1 1-1s1 .447 1 1v8.998c0 .553-.447 1-1 1z"/><path d="m29.03 58c-.553 0-1.005-.447-1.005-1s.442-1 .994-1h.011c.552 0 1 .447 1 1s-.448 1-1 1z"/><path d="m29.03 61.999c-.553 0-1.005-.447-1.005-1s.442-1 .994-1h.011c.552 0 1 .447 1 1s-.448 1-1 1z"/><path d="m35.036 58c-.553 0-1.005-.447-1.005-1s.442-1 .994-1h.011c.552 0 1 .447 1 1s-.448 1-1 1z"/><path d="m35.036 61.999c-.553 0-1.005-.447-1.005-1s.442-1 .994-1h.011c.552 0 1 .447 1 1s-.448 1-1 1z"/></g></svg>