<svg height="512" viewBox="0 0 64 64" width="512" xmlns="http://www.w3.org/2000/svg"><path d="m31.367 25.046-.074-2.754 5.486-5.486 1.35 1.478z" fill="#51a262"/><path d="m33 19a2.985 2.985 0 0 0 -4.08-2.792 4.98 4.98 0 0 0 -9.84 0 2.985 2.985 0 0 0 -4.08 2.792c0 1 4 13 4 13h11s3-12.718 3-13z" fill="#69e15b"/><path d="m38 44s-5.048-.1-3-8 0-14 5-13c4.043.808 9.072 4.078 6 10s.192 11.987-8 11z" fill="#cccbbc"/><path d="m38.421 8-1.432 1.516a6 6 0 0 0 .011 8.484l1.993-2c2.343-2.343 1.771-5.657-.572-8z" fill="#8ec13f"/><path d="m46.993 16.588-1.493 1.412a6.02 6.02 0 0 1 -8.5 0l1.993-2c2.343-2.343 5.657-1.755 8 .588z" fill="#55b56a"/><path d="m44.052 42s-5.048-1.1-3-9 0-14 5-13c4.043.808 9.072 4.078 6 10s.191 12.987-8 12z" fill="#f4f4e6"/><path d="m5.793 14.671h2v7.071h-2z" fill="#ba5008" transform="matrix(.707 -.707 .707 .707 -10.885 10.136)"/><path d="m5.207 19.257h2v7.071h-2z" fill="#ba5008" transform="matrix(.707 -.707 .707 .707 -14.299 11.065)"/><path d="m7 25 5 5 6-2-9.013-9.025z" fill="#e97424"/><path d="m21 30.996-.008 1.004h-7l-2-2 6-2z" fill="#f9bb4b"/><path d="m10.586 23h2.828v2h-2.828z" fill="#394d5c" transform="matrix(.707 -.707 .707 .707 -13.455 15.515)"/><ellipse cx="26" cy="32" fill="#ffe4b3" rx="5" ry="4"/><ellipse cx="31" cy="32" fill="#ffcf83" rx="5" ry="4"/><g fill="#55b56a"><path d="m22 19h-2a2 2 0 0 0 -2-2v-2a4 4 0 0 1 4 4z"/><path d="m28 19h-2a4 4 0 0 1 4-4v2a2 2 0 0 0 -2 2z"/><path d="m20 21h2v2h-2z"/><path d="m25 23h2v2h-2z"/></g><path d="m9 32h46v18h-46z" fill="#cfdfe8"/><path d="m3 32h6v4h-6z" fill="#394d5c"/><path d="m55 32h6v4h-6z" fill="#394d5c"/><path d="m7 50h50v6h-50z" fill="#7d8d9c"/><path d="m16 47h-4v-6h2v4h2z" fill="#f4f4e6"/><path d="m50 45h2v2h-2z" fill="#f4f4e6"/><path d="m46 45h2v2h-2z" fill="#f4f4e6"/></svg>